HIERARCHY
ROOT Hips
{
 OFFSET 0.000000 0.000000 0.000000
 CHANNELS 6 Xposition Yposition Zposition Yrotation Xrotation Zrotation
 JOINT Chest
 {
  OFFSET 0.000000 10.101222 -0.056779
  CHANNELS 3 Yrotation Xrotation Zrotation
  JOINT Chest2
  {
   OFFSET 0.000000 8.297218 0.103137
   CHANNELS 3 Yrotation Xrotation Zrotation
   JOINT Chest3
   {
    OFFSET 0.000000 7.493411 0.000000
    CHANNELS 3 Yrotation Xrotation Zrotation
    JOINT Chest4
    {
     OFFSET 0.000000 7.493411 0.000000
     CHANNELS 3 Yrotation Xrotation Zrotation
     JOINT Neck
     {
      OFFSET 0.000000 10.747351 0.000000
      CHANNELS 3 Yrotation Xrotation Zrotation
      JOINT Head
      {
       OFFSET 0.000000 7.717153 0.188667
       CHANNELS 3 Yrotation Xrotation Zrotation
       End Site
       {
        OFFSET 0.000000 14.853047 0.068983
       }
      }
     }
     JOINT RightCollar
     {
      OFFSET -2.766550 6.061559 0.000000
      CHANNELS 3 Yrotation Xrotation Zrotation
      JOINT RightShoulder
      {
       OFFSET -14.830725 0.000000 0.000000
       CHANNELS 3 Yrotation Xrotation Zrotation
       JOINT RightElbow
       {
        OFFSET -28.959634 0.000000 0.000000
        CHANNELS 3 Yrotation Xrotation Zrotation
        JOINT RightWrist
        {
         OFFSET -23.742631 0.000000 0.003006
         CHANNELS 3 Yrotation Xrotation Zrotation
         End Site
         {
          OFFSET -17.766445 0.000000 0.000000
         }
        }
       }
      }
     }
     JOINT LeftCollar
     {
      OFFSET 2.766550 6.061559 0.000000
      CHANNELS 3 Yrotation Xrotation Zrotation
      JOINT LeftShoulder
      {
       OFFSET 14.830725 0.000000 0.000000
       CHANNELS 3 Yrotation Xrotation Zrotation
       JOINT LeftElbow
       {
        OFFSET 28.959634 0.000000 0.000000
        CHANNELS 3 Yrotation Xrotation Zrotation
        JOINT LeftWrist
        {
         OFFSET 23.742631 0.000000 0.003006
         CHANNELS 3 Yrotation Xrotation Zrotation
         End Site
         {
          OFFSET 17.766445 0.000000 0.000000
         }
        }
       }
      }
     }
    }
   }
  }
 }
 JOINT RightHip
 {
  OFFSET -8.655184 0.278217 0.028389
  CHANNELS 3 Yrotation Xrotation Zrotation
  JOINT RightKnee
  {
   OFFSET 0.000000 -47.671744 -0.001158
   CHANNELS 3 Yrotation Xrotation Zrotation
   JOINT RightAnkle
   {
    OFFSET 0.000000 -42.492694 -0.036854
    CHANNELS 3 Yrotation Xrotation Zrotation
    JOINT RightToe
    {
     OFFSET 0.000000 -5.741774 14.901460
     CHANNELS 3 Yrotation Xrotation Zrotation
     End Site
     {
      OFFSET 0.000000 -1.778666 8.212983
     }
    }
   }
  }
 }
 JOINT LeftHip
 {
  OFFSET 8.655184 0.278217 0.028389
  CHANNELS 3 Yrotation Xrotation Zrotation
  JOINT LeftKnee
  {
   OFFSET 0.000000 -47.671744 -0.001158
   CHANNELS 3 Yrotation Xrotation Zrotation
   JOINT LeftAnkle
   {
    OFFSET 0.000000 -42.492694 -0.036854
    CHANNELS 3 Yrotation Xrotation Zrotation
    JOINT LeftToe
    {
     OFFSET 0.000000 -5.741774 14.901460
     CHANNELS 3 Yrotation Xrotation Zrotation
     End Site
     {
      OFFSET 0.000000 -1.778666 8.212983
     }
    }
   }
  }
 }
}
MOTION
Frames: 8
Frame Time: 0.004167
0.000000 95.428143 0.000000 0.000000 -5.826342 0.000000 0.000000 11.116423 0.000000 0.000000 -5.290081 0.000000 0.000000 0.000000 0.000000 0.000000 0.000000 0.000000 0.000000 12.665069 0.000000 0.000000 0.575450 0.000000 0.000000 0.000000 0.000000 0.000000 0.000000 0.000000 2.337306 0.000000 0.000000 -2.337306 0.000000 0.000000 0.000000 0.000000 0.000000 0.000000 0.000000 0.000000 -2.337306 0.000000 0.000000 2.337306 0.000000 0.000000 0.000000 8.578828 0.000000 0.000000 1.905768 0.000000 0.000000 -4.658254 0.000000 0.000000 0.000000 0.000000 0.000000 8.578828 0.000000 0.000000 1.905768 0.000000 0.000000 -4.658254 0.000000 0.000000 0.000000 0.000000
733.224229 97.097586 904.783114 85.044978 -12.012353 -3.940873 -1.592501 11.132242 -0.773148 -0.665465 -2.690516 -0.257874 -0.665416 2.599209 -0.319290 -0.497619 1.949757 -0.236595 6.424010 18.595090 -1.838025 12.379198 -1.208370 -5.439419 1.189813 -4.100394 -4.719724 4.819948 -17.710208 71.557107 114.933898 -9.151876 14.794674 -9.052179 3.474332 -7.671057 0.831072 -1.559264 -7.261817 -8.088819 5.503541 -71.300918 -4.750672 -35.059078 -96.239065 -21.374369 -36.059920 4.287052 4.209712 17.063545 5.025775 -3.120085 0.316840 0.992753 -12.603125 -2.088545 -4.890491 -0.073833 -2.635873 5.157222 5.117892 16.269974 2.518799 -10.296955 -7.963384 -4.337841 22.782790 -4.038852 6.246519 0.000000 0.000000 0.000000
733.226010 97.097686 904.794587 85.082824 -11.997742 -3.941766 -1.584955 11.138829 -0.782696 -0.661587 -2.687571 -0.262492 -0.661541 2.602158 -0.323550 -0.494693 1.951972 -0.239803 6.414742 18.579568 -1.834351 12.362342 -1.238473 -5.431445 1.198447 -4.111354 -4.711167 4.765754 -17.748846 71.582829 114.947904 -9.150366 14.746318 -9.027304 3.433080 -7.687781 0.830646 -1.560104 -7.261835 -8.081093 5.484227 -71.321946 -4.821390 -35.097828 -96.219082 -21.438195 -36.071613 4.373612 4.199718 17.058771 5.032304 -3.135216 0.308184 0.995580 -12.615017 -2.087711 -4.895288 -0.073815 -2.637988 5.154268 5.116692 16.258027 2.524467 -10.298602 -7.967820 -4.336439 22.746891 -4.033694 6.260522 0.000000 -0.000000 -0.000000
733.227991 97.097816 904.805933 85.118584 -11.982092 -3.942810 -1.576895 11.144530 -0.791894 -0.657501 -2.685022 -0.266985 -0.657459 2.604712 -0.327667 -0.491612 1.953890 -0.242904 6.403594 18.563230 -1.831281 12.342302 -1.270207 -5.424072 1.206523 -4.121839 -4.702471 4.712128 -17.787946 71.608261 114.961033 -9.148488 14.701146 -9.001838 3.391270 -7.715430 0.829743 -1.560614 -7.261793 -8.073472 5.466303 -71.342231 -4.896469 -35.136624 -96.197227 -21.508371 -36.085037 4.467363 4.193172 17.053190 5.039339 -3.152244 0.298322 0.999170 -12.626658 -2.086191 -4.900104 -0.073778 -2.639986 5.150904 5.116309 16.244920 2.530372 -10.300404 -7.971708 -4.335174 22.713026 -4.029450 6.273963 -0.000000 -0.000000 -0.000000
733.230040 97.098019 904.817169 85.152041 -11.964978 -3.944082 -1.568302 11.149338 -0.800756 -0.653199 -2.682872 -0.271361 -0.653159 2.606866 -0.331646 -0.488369 1.955507 -0.245904 6.390350 18.545243 -1.828817 12.318754 -1.305136 -5.417316 1.214215 -4.131836 -4.693625 4.659206 -17.827413 71.633470 114.974317 -9.145268 14.658687 -8.974924 3.348622 -7.754340 0.828642 -1.560727 -7.261486 -8.065309 5.449610 -71.362043 -4.976429 -35.175160 -96.173534 -21.586188 -36.100428 4.570403 4.190484 17.046171 5.046921 -3.171443 0.287403 1.003745 -12.638036 -2.083875 -4.904904 -0.073718 -2.641896 5.146973 5.117780 16.229638 2.536794 -10.303276 -7.974073 -4.334119 22.681212 -4.026480 6.286803 -0.000000 -0.000000 -0.000000
733.232070 97.098326 904.828320 85.183117 -11.946302 -3.945616 -1.559230 11.153444 -0.809325 -0.648703 -2.681037 -0.275635 -0.648664 2.608706 -0.335505 -0.484981 1.956889 -0.248816 6.374863 18.524854 -1.826889 12.291466 -1.344672 -5.411079 1.221774 -4.141443 -4.684670 4.607410 -17.867050 71.658555 114.988565 -9.140328 14.617916 -8.946109 3.304942 -7.802583 0.827736 -1.560466 -7.260687 -8.055979 5.434030 -71.381757 -5.061111 -35.213307 -96.148296 -21.671279 -36.117565 4.682892 4.191396 17.037408 5.054974 -3.192550 0.275760 1.009345 -12.649078 -2.080800 -4.909628 -0.073631 -2.643744 5.142404 5.121799 16.211588 2.543870 -10.307819 -7.974056 -4.333264 22.651224 -4.025031 6.299036 0.000000 0.000000 0.000000
733.234147 97.098717 904.839389 85.211968 -11.926393 -3.947364 -1.549732 11.156966 -0.817617 -0.644033 -2.679463 -0.279812 -0.643996 2.610285 -0.339252 -0.481463 1.958074 -0.251643 6.357243 18.502391 -1.825458 12.260596 -1.388202 -5.405282 1.229188 -4.150730 -4.675636 4.556861 -17.906831 71.683516 115.003299 -9.134344 14.578667 -8.915893 3.260397 -7.858729 0.826996 -1.559909 -7.259452 -8.045711 5.419638 -71.401348 -5.149946 -35.251265 -96.121649 -21.762263 -36.136054 4.803028 4.195382 17.027302 5.063410 -3.215159 0.263454 1.015790 -12.659751 -2.077083 -4.914277 -0.073522 -2.645521 5.137303 5.127822 16.191357 2.551421 -10.313541 -7.972051 -4.332536 22.622915 -4.024913 6.310694 0.000000 0.000000 0.000000
733.236338 97.099173 904.850375 85.238745 -11.905585 -3.949276 -1.539859 11.160022 -0.825650 -0.639211 -2.678098 -0.283896 -0.639176 2.611654 -0.342890 -0.477833 1.959103 -0.254391 6.337602 18.478181 -1.824480 12.226306 -1.435112 -5.399847 1.236445 -4.159766 -4.666555 4.507683 -17.946728 71.708349 115.018041 -9.127992 14.540775 -8.884779 3.215152 -7.921347 0.826394 -1.559132 -7.257838 -8.034732 5.406508 -71.420784 -5.242367 -35.289234 -96.093732 -21.857754 -36.155510 4.929003 4.201913 17.016258 5.072140 -3.238867 0.250544 1.022902 -12.670028 -2.072841 -4.918847 -0.073394 -2.647216 5.131775 5.135303 16.169530 2.559269 -10.319951 -7.968449 -4.331862 22.596136 -4.025938 6.321809 0.000000 0.000000 0.000000
